<?xml version="1.0" encoding="utf-8"?>
<!-- Generator: Adobe Illustrator 26.0.0, SVG Export Plug-In . SVG Version: 6.00 Build 0)  -->
<svg version="1.1" id="Layer_1" xmlns="http://www.w3.org/2000/svg" xmlns:xlink="http://www.w3.org/1999/xlink" x="0px" y="0px"
	 viewBox="0 0 271 262" style="enable-background:new 0 0 271 262;" xml:space="preserve">
<style type="text/css">
	.st0{fill:#5168F4;}
</style>
<g transform="translate(0.000000,262.000000) scale(0.100000,-0.100000)">
	<path d="M515.3,2531.2c-10-13-13-161-11-674v-133l43-45c24-25,52-45,63-45c12,0,66,47,137,118l117,119v321c0,278-2,323-16,336
		C827.3,2550.2,533.3,2552.2,515.3,2531.2z"/>
	<path d="M1407.3,1792.2c-414-414-753-760-753-768c0-20,221-240,240-240c18,0,1720,1699,1720,1717c0,6-7,19-16,27
		c-13,14-48,16-227,16h-212L1407.3,1792.2z"/>
	<path class="st0" d="M116.3,2522.2c-9-9-12-130-12-481v-470l97-101c53-55,105-105,115-110c16-8,37,9,134,105c63,62,114,117,114,122
		s-25,34-55,66l-55,58v405c0,361-2,407-16,412C407.3,2540.2,129.3,2535.2,116.3,2522.2z"/>
	<path class="st0" d="M980.3,1925.2c-335-335-607-613-605-619c7-20,221-232,233-232c9,0,1330,1313,1435,1425c2,3-2,11-9,20
		c-10,13-47,15-229,15h-216L980.3,1925.2z"/>
	<path d="M200.3,1154.2l-101-99l-3-464c-2-293,1-474,7-491l11-26h165h165l10,26c6,15,10,187,10,418v392l45,44c25,24,45,51,45,59
		c0,19-220,241-238,241C307.3,1254.2,255.3,1209.2,200.3,1154.2z"/>
	<path class="st0" d="M1335.3,1133.2c-61-61-111-116-111-122c0-7,208-220,463-475l463-462h210c215,0,234,3,234,40
		c0,20-1111,1130-1132,1130C1453.3,1244.2,1396.3,1194.2,1335.3,1133.2z"/>
	<path class="st0" d="M545.3,919.2l-41-45v-384c0-336,2-387,16-400c13-13,42-16,163-16c101,0,151,4,159,12c9,9,12,94,12,323v310
		l-123,123c-67,67-127,122-133,122S568.3,944.2,545.3,919.2z"/>
	<path d="M1046.3,851.2c-61-62-112-117-112-122c0-6,145-155,323-333l323-322l224,2l225,3l3,24c3,20-65,93-415,443
		c-275,275-425,418-438,418S1115.3,921.2,1046.3,851.2z"/>
</g>
</svg>
